<?xml version="1.0" encoding="utf-8"?>
<!-- Generator: Adobe Illustrator 23.0.2, SVG Export Plug-In . SVG Version: 6.00 Build 0)  -->
<svg version="1.1" id="Layer_1" xmlns="http://www.w3.org/2000/svg" xmlns:xlink="http://www.w3.org/1999/xlink" x="0px" y="0px"
	 viewBox="0 0 1760 170" style="enable-background:new 0 0 1760 170;" xml:space="preserve">
<style type="text/css">
	.st0{fill-rule:evenodd;clip-rule:evenodd;fill:#CEA5CE;}
	.st1{fill-rule:evenodd;clip-rule:evenodd;fill:#EFE4EF;}
</style>
<title>Page 1</title>
<desc>Created with Sketch.</desc>
<g id="Page-1">
	<path class="st0" d="M280.1,2.6L153,94c-2.9,2.1-6.8,2.1-9.7,0l-10.9-7.9c-2.3-1.6-5.2-2-7.8-1L5.3,130.7C2.1,131.9,0,135,0,138.5
		v22.1c0,4.6,3.7,8.3,8.3,8.3h1743.4c4.6,0,8.3-3.7,8.3-8.3v-21.1c0-3.9-2.7-7.3-6.6-8.1l-103.5-22.2c-0.5-0.1-1.1-0.3-1.6-0.5
		l-119.8-52.6c-2.1-0.9-4.4-0.9-6.5-0.1l-120.9,49.8c-2.2,0.9-4.8,0.8-7-0.3l-71.4-36.7c-2.5-1.3-5.5-1.2-7.9,0.2l-5.9,3.4
		c-2.4,1.4-5.4,1.5-7.8,0.2L1209,26.9c-2.1-1-4.6-1.1-6.8-0.3l-111.8,44.7c-2.3,0.9-4.9,0.8-7-0.4l-107.5-58c-2.9-1.6-6.4-1.3-9,0.7
		l-22.3,17.2c-2.6,2-6.1,2.3-9,0.8l-9.3-4.9c-2.7-1.4-5.9-1.3-8.4,0.4l-135.5,87.8c-2.7,1.8-6.2,1.8-8.9,0.1l-63.6-39.8
		c-2.2-1.4-5-1.7-7.5-0.7L691,79c-2.8,1.1-5.9,0.6-8.2-1.2l-30.6-24.2c-2.7-2.2-6.5-2.4-9.5-0.6l-1.4,0.9c-3,1.9-6.9,1.6-9.7-0.7
		L614,38.3c-2.5-2.1-5.9-2.5-8.8-1.2L481.3,94.8c-2.5,1.1-5.3,1-7.7-0.3l-99.4-57.7c-2-1.2-4.4-1.4-6.7-0.7l-23.1,7.2
		c-2.7,0.8-5.6,0.3-7.8-1.5L290.3,3C287.3,0.6,283.2,0.4,280.1,2.6z"/>
	<path class="st1" d="M222.7,52.1l56.5-41.3c2.4-1.7,5.6-1.6,7.9,0.2L335,50.8c0.2,0.2,0.4,0.4,0.6,0.6L357.5,75
		c5,5.4-1.5,13.6-7.9,10l-6.8-3.9c-2.2-1.2-4.9-0.6-6.4,1.3c-0.1,0.2-0.2,0.4-0.3,0.6l-5.2,27.3c-0.3,1.4-2.2,1.6-2.8,0.3
		c-2.8-6.3-6.3-7.8-9.5-7.1c-4.5,0.9-8.5-3.2-7.7-7.7l0.9-5.3c0.1-0.4,0-0.7-0.2-1c-8.8-14-17.2-11.7-17-12.5
		c1.9-7,0.2-25.4-14.5-12c-2.8,2.6-5.9-4.9-8.8-7.3c-2.2-1.8-5.5-1.4-7.2,0.9c-8.1,10.9-16.3,21.8-24.4,32.7
		c-4.1,5.6-12.9,1.5-11.4-5.2l0.7-3.3c1.1-4.9-3.7-9.2-8.4-7.5l0,0c-5.9,2.1-11-4.6-7.5-9.7l8.1-11.8
		C221.6,53,222.1,52.5,222.7,52.1z"/>
	<path class="st1" d="M291.2,51.8"/>
	<path class="st1" d="M81,105l47.3-18.2c1.5-0.6,3.1-0.4,4.4,0.6l16.6,11.8c1.5,1.1,3.5,1.2,5.1,0.2l16.7-9.8c2.9-1.7,6.6,0.1,7,3.5
		l4.8,40.9c0.5,4.4-4.8,7-7.9,3.9l-22-21.6c-1.5-1.5-3.9-1.8-5.7-0.6l-22.6,13.9c-3.9,2.4-8.6-1.6-6.8-5.8l0,0c2-4.8-4.2-8.9-7.8-5
		l-10.5,11.3c-2,2.1-6.9,2.6-7.2-0.3c-2.3-22.8-10.6-13.7-13.5-17.5c-1.6-2,1.6,2,0,0C77.1,109.8,78.1,106.2,81,105z"/>
	<path class="st1" d="M621.9,119.6l-29.5-38.2l-0.1-0.1c-4.4-3.1-16-4.1-27.2-0.4l-37.2,10.9c-4.1,0.8-11.9-5.6-8.4-7.8l23.6-10.6
		c0.1-0.1,0.3-0.2,0.4-0.2l65-31.5c1.7-0.8,3.8-0.6,5.3,0.7L634,60.1c1.5,1.3,3.7,1.6,5.5,0.6l8.3-4.4c1.7-0.9,3.7-0.7,5.2,0.4
		l34,25.9c1.4,1.1,3.4,1.3,5,0.5l13.8-6.6c1.6-0.8,3.5-0.6,5,0.5L738,97.3c0.1,0.1,0.1,0.1,0.2,0.1l0,0c4.7,3.1,1.2,10.3-4.2,8.6
		l-10-3.2c-3.8-1.2-7.4,2.4-6.1,6.1l3,8.9c1.4,4.2-3.1,7.9-6.9,5.8l-64.1-35.8c-2.7-1.5-6-0.2-6.9,2.7
		C642.9,90.6,625.3,124.1,621.9,119.6z"/>
	<path class="st1" d="M856.2,75.1L909.9,42c0.9-0.6,2-0.7,3-0.3l14.1,5.4c1.1,0.4,2.2,0.2,3.2-0.4l32.7-23.4c1-0.7,2.2-0.8,3.3-0.4
		l99.4,41.9c2.5,1.1,2.8,4.6,0.4,6l-9.8,5.9c-0.6,0.4-1.3,0.5-2,0.5l-96.1-7c-0.2,0-0.5,0-0.7,0l-45.1,6.1l-54.1,5
		C854.7,81.7,853.1,77,856.2,75.1z"/>
	<path class="st1" d="M1146.9,53.3l54.7-23.3c1.8-0.8,3.8-0.7,5.6,0.1l79,38.1c3.4,1.6,4.8,5.7,3.1,9l-5.1,10.5
		c-1.9,3.8-6.8,5-10.2,2.4l-15.2-11.7c-0.5-0.4-1.1-0.7-1.7-1l-37.5-14.5c-1.6-0.6-3.4-0.6-5,0L1189.5,73c-1,0.4-1.9,1-2.6,1.8
		l-0.5,0.5c-3.3,3.8-9.4,2.8-11.3-1.8l-4.4-10.7c-1.6-3.9-6.5-5.4-10-3l-7.5,5.1c-1.9,1.3-4.3,1.5-6.4,0.6l0,0
		C1141.4,63.3,1141.4,55.6,1146.9,53.3z"/>
	<path class="st1" d="M1457,91.7l67.6-30.7c0.7-0.3,1.4-0.3,2.1,0l78.4,34.1c2.7,1.2,1.6,5.2-1.3,4.8l-12.3-1.4
		c-1.2-0.1-2.3,0.6-2.7,1.7l-5.4,15.4c-0.7,1.9-3.3,2.3-4.4,0.6l-21-29.4c-1-1.5-3.2-1.4-4.2,0.1l-19.6,30.4c-0.9,1.4-3,1.6-4.1,0.3
		L1514.4,99c-0.9-1-2.3-1.2-3.4-0.4l-25.2,18c-0.9,0.6-2.1,0.6-3,0l-20.8-15.8c-0.8-0.6-1.9-0.9-2.9-0.9l0,0
		C1454.3,100.3,1452.6,93.7,1457,91.7z"/>
</g>
</svg>
